<?xml version="1.0" encoding="utf-8"?>
<!-- Generator: Adobe Illustrator 17.0.0, SVG Export Plug-In . SVG Version: 6.00 Build 0)  -->
<!DOCTYPE svg PUBLIC "-//W3C//DTD SVG 1.1//EN" "http://www.w3.org/Graphics/SVG/1.1/DTD/svg11.dtd">
<svg version="1.1" id="Layer_1" xmlns="http://www.w3.org/2000/svg" xmlns:xlink="http://www.w3.org/1999/xlink" x="0px" y="0px"
	 width="1024px" height="768px" viewBox="0 0 1024 768" enable-background="new 0 0 1024 768" xml:space="preserve">
<g enable-background="new    ">
	<path fill="#0756A5" d="M110.056,506.966c-9.265,0-18.073-2.961-26.423-8.884c-7.289-5.012-10.934-11.539-10.934-19.59
		c0-2.883,0.075-5.086,0.228-6.605c2.125-13.361,5.086-20.045,8.884-20.045c3.036,0,5.695,5.392,7.973,16.173
		c1.367,6.229,7.517,9.339,18.451,9.339c14.578,0,31.128-5.086,49.658-15.262c11.692-6.527,22.397-14.426,32.118-23.689
		c9.717-9.262,16.817-18.412,21.298-27.449c4.478-9.033,6.72-16.514,6.72-22.437c0-6.378-1.367-11.539-4.1-15.489
		c-3.645-5.467-15.34-8.2-35.08-8.2h-24.145c-9.112,0-16.935-3.947-23.462-11.846c-3.797-4.705-5.694-9.261-5.694-13.667
		c0-4.1,1.669-7.973,5.011-11.617c6.983-7.744,15.034-15.945,24.146-24.601c9.111-8.656,17.842-19.021,26.195-31.093
		c8.35-12.073,14.197-23.804,17.54-35.193c2.581-8.656,3.873-15.792,3.873-21.412c0-14.425-8.734-21.64-26.196-21.64
		c-6.378,0-13.137,2.203-20.273,6.605c-5.773,3.645-10.706,8.201-14.806,13.667c2.278,2.431,3.417,5.165,3.417,8.2
		c0,5.011-2.431,11.468-7.29,19.362c-8.051,13.063-16.4,30.677-25.056,52.847c-8.656,22.174-15.757,43.472-21.298,63.895
		c-5.545,20.426-10.557,39.258-15.034,56.491c-4.481,17.237-9.834,33.143-16.059,47.721c-5.62,12.909-10.859,19.362-15.717,19.362
		c-4.709,0-7.062-5.012-7.062-15.034c0-2.427,0.149-5.086,0.456-7.973c1.516-16.094,5.086-32.688,10.706-49.771
		c5.616-17.084,11.578-35.798,17.881-56.149c6.3-20.348,12.261-41.987,17.881-64.919c5.616-22.928,9.072-41.874,10.364-56.833
		c1.288-14.956,6.036-22.967,14.236-24.031c1.669-0.303,3.264-0.456,4.784-0.456c3.492,0,6.527,0.683,9.111,2.05
		c8.503-13.361,19.134-24.031,31.891-32.004c12.756-7.973,25.814-11.959,39.179-11.959c10.022,0,19.739,2.887,29.157,8.656
		c13.361,8.2,20.045,21.64,20.045,40.318c0,31.588-27.79,71.679-83.37,120.271c16.55,0,32.42,1.367,47.607,4.101
		c15.183,2.733,27.826,8.354,37.926,16.856c10.098,8.506,15.223,19.134,15.376,31.89c0,12.756-4.065,25.21-12.187,37.357
		c-8.125,12.15-18.301,23.234-30.523,33.257c-12.226,10.022-24.868,18.757-37.926,26.195c-13.062,7.442-25.512,13.134-37.357,17.084
		C130.329,504.763,119.623,506.813,110.056,506.966z"/>
	<path fill="#0756A5" d="M427.363,547.968c-5.62,0-9.567-7.518-11.845-22.552c-0.306-2.583-0.456-5.238-0.456-7.972
		c0-4.862,2.05-18.376,6.15-40.547c3.645-19.892,9.186-55.427,16.628-106.604c-18.529,2.584-38.421,6.833-59.68,12.756
		c-13.667,3.798-25.818,6.986-36.446,9.567c-12.909,20.956-25.893,44.874-38.952,71.752c-6.987,14.43-13.361,23.996-19.134,28.701
		c-2.883,2.432-8.656,3.646-17.312,3.646c-4.101,0-6.15-1.973-6.15-5.923c0-8.048,5.62-20.273,16.856-36.674
		c10.023-14.728,21.562-33.029,34.624-54.896c-8.962,1.673-15.717,2.506-20.273,2.506c-4.858,0-7.289-1.14-7.289-3.417
		c0-4.101,8.125-10.172,24.374-18.223c6.072-2.884,12.3-5.468,18.678-7.745l19.134-33.94
		c29.003-52.238,49.732-88.153,62.186-107.743c6.225-9.567,13.361-16.095,21.412-19.59c7.289-3.189,14.351-4.783,21.184-4.783
		c1.972-0.911,4.556-1.367,7.745-1.367c4.402,0,9.186,1.292,14.351,3.872c10.627,5.317,15.945,13.439,15.945,24.374
		c0,5.773-3.417,25.057-10.25,57.857c-3.951,18.985-7.595,37.738-10.934,56.264c6.681-0.605,12.678-0.911,17.995-0.911
		c12.756,0,19.134,1.9,19.134,5.694c0,4.709-8.809,9.795-26.423,15.262c-4.709,0-9.417,0.153-14.123,0.456
		c-7.595,44.344-13.29,87.623-17.084,129.839c-0.911,10.324-2.886,20.272-5.922,29.84
		C437.232,541.134,432.524,547.968,427.363,547.968z M359.938,364.144c13.667-2.733,40.546-7.211,80.637-13.439
		c3.794-26.726,5.695-51.327,5.695-73.803c0-11.539-0.609-21.031-1.822-28.474l-28.474,32.573
		C390.461,318.358,371.783,346.073,359.938,364.144z"/>
	<path fill="#0756A5" d="M655.15,522.911c-3.039,0-6.303-0.684-9.795-2.051c-11.39-4.406-17.084-11.77-17.084-22.095
		c0-17.614,3.11-47.836,9.34-90.659c3.946-26.117,6.452-47.607,7.517-64.464l-12.756,25.968
		c-19.743,41.002-37.738,75.703-53.985,104.099c-7.442,12.909-17.085,19.361-28.93,19.361c-13.518,0-20.273-5.011-20.273-15.033
		c0-6.226,2.354-19.817,7.063-40.774c19.738-89.441,32.346-149.122,37.813-179.04c3.645-19.739,5.467-35.307,5.467-46.697
		c0-10.325,3.338-15.489,10.022-15.489c1.669,0,3.491,0.228,5.467,0.683c9.87,1.976,15.792,2.961,17.768,2.961
		c3.036,0,7.25,0.95,12.642,2.847c5.389,1.901,8.087,4.748,8.087,8.542c0,2.887-1.52,6.304-4.556,10.25
		c-6.986,9.112-14.351,23.387-22.096,42.824c-14.578,36.144-25.818,77.829-33.712,125.056c-5.012,30.676-8.051,53.228-9.111,67.652
		c9.413-11.845,19.476-26.612,30.182-44.305c10.706-17.688,19.967-35.114,27.79-52.277c7.819-17.158,14.578-32.231,20.272-45.215
		c5.695-12.984,11.425-23.271,17.198-30.865c3.188-4.25,7.136-6.378,11.845-6.378c3.794,0,8.2,1.444,13.212,4.327
		c7.438,4.406,11.161,10.102,11.161,17.084c0,3.189-0.762,6.685-2.277,10.479c-5.012,11.998-10.102,27.221-15.262,45.671
		c-5.165,18.451-9.076,36.827-11.731,55.125c-2.658,18.301-3.986,35.421-3.986,51.366c0,13.211,0.303,21.64,0.911,25.284
		c6.378-6.072,15.148-17.387,26.31-33.94c11.161-16.55,22.358-37.734,33.599-63.553c11.236-25.814,23.384-52.124,36.446-78.928
		c13.059-26.801,23.536-49.999,31.435-69.589c7.894-19.589,12.83-35.535,14.806-47.835c1.669-11.236,5.77-16.856,12.301-16.856
		c6.833,0,10.25,6.303,10.25,18.906c0,16.554-42.446,107.138-127.333,271.75c-9.873,18.984-18.831,33.861-26.879,44.646
		C668.817,519.188,662.439,522.911,655.15,522.911z"/>
	<path fill="#0756A5" d="M924.851,547.968c-5.62,0-9.567-7.518-11.845-22.552c-0.307-2.583-0.456-5.238-0.456-7.972
		c0-4.862,2.05-18.376,6.15-40.547c3.645-19.892,9.187-55.427,16.628-106.604c-18.528,2.584-38.421,6.833-59.68,12.756
		c-13.667,3.798-25.818,6.986-36.446,9.567c-12.909,20.956-25.893,44.874-38.951,71.752c-6.986,14.43-13.361,23.996-19.134,28.701
		c-2.884,2.432-8.656,3.646-17.313,3.646c-4.1,0-6.15-1.973-6.15-5.923c0-8.048,5.62-20.273,16.856-36.674
		c10.022-14.728,21.562-33.029,34.624-54.896c-8.962,1.673-15.718,2.506-20.273,2.506c-4.858,0-7.289-1.14-7.289-3.417
		c0-4.101,8.126-10.172,24.373-18.223c6.072-2.884,12.301-5.468,18.679-7.745l19.134-33.94
		c29.004-52.238,49.732-88.153,62.187-107.743c6.225-9.567,13.361-16.095,21.412-19.59c7.289-3.189,14.351-4.783,21.184-4.783
		c1.972-0.911,4.556-1.367,7.745-1.367c4.402,0,9.186,1.292,14.351,3.872c10.628,5.317,15.945,13.439,15.945,24.374
		c0,5.773-3.417,25.057-10.251,57.857c-3.95,18.985-7.595,37.738-10.934,56.264c6.681-0.605,12.678-0.911,17.995-0.911
		c12.756,0,19.134,1.9,19.134,5.694c0,4.709-8.809,9.795-26.423,15.262c-4.709,0-9.418,0.153-14.123,0.456
		c-7.595,44.344-13.29,87.623-17.084,129.839c-0.911,10.324-2.887,20.272-5.922,29.84
		C934.72,541.134,930.011,547.968,924.851,547.968z M857.426,364.144c13.667-2.733,40.546-7.211,80.636-13.439
		c3.795-26.726,5.695-51.327,5.695-73.803c0-11.539-0.608-21.031-1.822-28.474l-28.474,32.573
		C887.949,318.358,869.271,346.073,857.426,364.144z"/>
</g>
</svg>
